<svg id="Layer_1" data-name="Layer 1" xmlns="http://www.w3.org/2000/svg" width="178.69mm" height="111.46mm" viewBox="0 0 506.53 315.96">
  <defs>
    <style>
      .cls-1 {
        fill: none;
        stroke: #1a1a1a;
        stroke-width: 11px;
      }

      .cls-1, .cls-3 {
        stroke-miterlimit: 10;
      }

      .cls-2, .cls-3 {
        fill: #dbbe94;
      }

      .cls-3 {
        stroke: #dbbe94;
        stroke-width: 10px;
      }
    </style>
  </defs>
  <g>
    <ellipse class="cls-1" cx="246.68" cy="157.99" rx="153.92" ry="152"/>
    <g>
      <path d="M172.39,195.68a4.2,4.2,0,0,0-2.22-.6,3,3,0,0,0-2.08.77,2.61,2.61,0,0,0-.87,2.08v.13a3.63,3.63,0,0,0,1.75,2.87,18.35,18.35,0,0,0,1.69,1.09c.63.36,1.25.74,1.88,1.15a14.34,14.34,0,0,1,1.7,1.3,5.68,5.68,0,0,1,1.25,1.69,5,5,0,0,1,.48,2.2v.25a4.72,4.72,0,0,1-1.61,3.77,5.82,5.82,0,0,1-4,1.4,5.5,5.5,0,0,1-4.85-2.57v-1.35a5.62,5.62,0,0,0,1.92,2.31,5.31,5.31,0,0,0,3.13.89,4.77,4.77,0,0,0,3.25-1.2,4,4,0,0,0,1.38-3.2v-.15a4.26,4.26,0,0,0-.65-2.29,5.63,5.63,0,0,0-1.63-1.7c-.65-.44-1.36-.9-2.12-1.39l-2.13-1.35a5.51,5.51,0,0,1-1.62-1.57,3.65,3.65,0,0,1-.65-2.08V198a3.27,3.27,0,0,1,1.12-2.68,4.27,4.27,0,0,1,2.78-.92,4.43,4.43,0,0,1,3.65,1.7v1.27A4.42,4.42,0,0,0,172.39,195.68Z"/>
      <path d="M198.07,194.68v18.75h-.82V195.66l-8.85,18.12-8.8-18.12v17.77h-.75V194.68h1.2l8.42,17.3,8.45-17.3Z"/>
      <path d="M210.05,194.23l9.37,19.2h-.87L215,206.28H205l-3.5,7.15h-.77ZM210,196l-4.67,9.6h9.4Z"/>
      <path d="M227.2,206.28v-.72h7v6.77a9.09,9.09,0,0,1-4.95,1.38H229a9.07,9.07,0,0,1-4.8-1.35,9.93,9.93,0,0,1-3.52-3.59A9.47,9.47,0,0,1,219.4,204a9.78,9.78,0,0,1,9.75-9.7,9.94,9.94,0,0,1,5.07,1.4v.92a8.88,8.88,0,0,0-5.07-1.6,8.57,8.57,0,0,0-6.3,2.64,8.93,8.93,0,0,0,0,12.66,8.54,8.54,0,0,0,6.3,2.65,9.88,9.88,0,0,0,4.25-1v-5.65Z"/>
      <path d="M243.46,195.68a4.19,4.19,0,0,0-2.21-.6,3,3,0,0,0-2.09.77,2.63,2.63,0,0,0-.86,2.08v.13a3.61,3.61,0,0,0,1.75,2.87,17.08,17.08,0,0,0,1.69,1.09c.62.36,1.25.74,1.87,1.15a13.57,13.57,0,0,1,1.7,1.3,5.36,5.36,0,0,1,1.25,1.69,4.87,4.87,0,0,1,.49,2.2v.25a4.75,4.75,0,0,1-1.61,3.77,5.86,5.86,0,0,1-4,1.4,5.49,5.49,0,0,1-4.85-2.57v-1.35a5.59,5.59,0,0,0,1.91,2.31,5.34,5.34,0,0,0,3.14.89,4.79,4.79,0,0,0,3.25-1.2,4.06,4.06,0,0,0,1.37-3.2v-.15a4.18,4.18,0,0,0-.65-2.29,5.6,5.6,0,0,0-1.62-1.7c-.65-.44-1.36-.9-2.13-1.39l-2.12-1.35a5.67,5.67,0,0,1-1.63-1.57,3.65,3.65,0,0,1-.65-2.08V198a3.28,3.28,0,0,1,1.13-2.68,4.24,4.24,0,0,1,2.77-.92,4.42,4.42,0,0,1,3.65,1.7v1.27A4.27,4.27,0,0,0,243.46,195.68Z"/>
      <path d="M258.15,194.23l9.37,19.2h-.87l-3.55-7.15h-10l-3.5,7.15h-.77Zm-.08,1.73-4.67,9.6h9.4Z"/>
      <path d="M270.15,194.68h1.07a5.92,5.92,0,0,1,4.26,1.79,5.65,5.65,0,0,1,1.84,4.2,5.57,5.57,0,0,1-1.87,4.19,5.8,5.8,0,0,1-4,1.77h-.17l6.45,6.8h-1.08l-5.67-6v6h-.8Zm.8,11.23h.45a4.91,4.91,0,0,0,3.57-1.55,5.29,5.29,0,0,0-3.7-9H271Z"/>
      <path d="M282.41,210.83a9.52,9.52,0,0,1-2.84-6.83,9.24,9.24,0,0,1,2.88-6.78,9.73,9.73,0,0,1,13.77,0,9.27,9.27,0,0,1,2.85,6.79,9.55,9.55,0,0,1-2.82,6.85,9.1,9.1,0,0,1-6.75,2.91h-.38A9,9,0,0,1,282.41,210.83Zm15.84-6.78a8.65,8.65,0,0,0-2.62-6.33,8.85,8.85,0,0,0-12.61,0,9,9,0,0,0,0,12.66,8.81,8.81,0,0,0,12.6,0A8.68,8.68,0,0,0,298.25,204.05Z"/>
      <path d="M321.3,194.68v18.75h-.83V195.66l-8.85,18.12-8.8-18.12v17.77h-.75V194.68h1.2L311.7,212l8.45-17.3Z"/>
      <path d="M333.27,194.23l9.38,19.2h-.88l-3.55-7.15h-10l-3.5,7.15h-.78ZM333.2,196l-4.68,9.6h9.4Z"/>
    </g>
    <path class="cls-2" d="M209.89,109.65h39.6l-30.88,59.84h-3L245.33,112H209.89Z"/>
    <g>
      <path class="cls-2" d="M267.87,110.54h1.21l-17.33,23.19H250.6Z"/>
      <path class="cls-2" d="M274,133.73V111.44h-3.65v-.9H275v23.19Z"/>
      <path class="cls-2" d="M290.81,134.13h-.47a11.14,11.14,0,0,1-8.29-3.59,11.74,11.74,0,0,1-3.49-8.45,12,12,0,0,1,24.06.08,11.72,11.72,0,0,1-1.58,5.89,12.12,12.12,0,0,1-4.33,4.41A11.18,11.18,0,0,1,290.81,134.13Zm10.79-12a10.75,10.75,0,0,0-3.25-7.84,10.87,10.87,0,0,0-15.54,0,11.12,11.12,0,0,0,0,15.67,10.91,10.91,0,0,0,15.54,0A10.71,10.71,0,0,0,301.6,122.15Z"/>
    </g>
    <path class="cls-3" d="M240.09,5.22l.08,1.41s17.27-1.1,40.25,4c13.14,2.92,27.57,9.19,43.06,16.94C348.6,40.14,375,72.84,386.79,98.05a133.38,133.38,0,0,1,12.07,50.69c1.91,46.14-15.58,77.62-15.58,77.62a130,130,0,0,1-14.71,23.06,190.62,190.62,0,0,1-27,27.29c-18.19,15.16-48,26.61-66.37,29.81a173.68,173.68,0,0,1-52.44.92c-15.48-2.2-31.72-7.94-44-13.76a142.23,142.23,0,0,1-21.43-12.5c-8.9-6.29-30.65-29.09-36.57-37l-1.08.56s18.06,27,46.69,44.94c20.47,12.84,72,28.84,117.55,17.37,15.17-3.82,44.12-16.13,66.48-35.36,14.91-12.82,27.71-28.76,35.42-46.16C398.84,196,404.35,167,400.49,135.39c-2.26-18.42-7.2-33.93-19.72-54.07-14.12-22.72-24.62-34.11-39.68-45.38-14.2-10.63-30.94-20.24-59-26.82C258.57,3.6,240.09,5.22,240.09,5.22Z"/>
  </g>
</svg>
