<svg id="Layer_1" data-name="Layer 1" xmlns="http://www.w3.org/2000/svg" width="89.34mm" height="34.59mm" viewBox="0 0 253.24 98.05">
  <defs>
    <style>
      .cls-1 {
        fill: none;
        stroke: #000;
        stroke-width: 4px;
      }

      .cls-1, .cls-2 {
        stroke-miterlimit: 10;
      }

      .cls-2 {
        fill: #1a1a1a;
        stroke: #fff;
        stroke-width: 2px;
      }

      .cls-3 {
        fill: #dbbe94;
      }
    </style>
  </defs>
  <g>
    <rect class="cls-1" x="2" y="2" width="249.24" height="94.05" rx="12"/>
    <path class="cls-2" d="M9.73,13.67,10,84.6s4.19,0,6.62,2.48,1.65,4.63,1.65,4.63l214.68.63a5.43,5.43,0,0,1,3.18-5.22,17.14,17.14,0,0,1,6.32-1.42l.24-74.24A18.08,18.08,0,0,1,237,10.14c-2.19-1.11-2.81-4.05-2.81-4.05L19,6.41a7.64,7.64,0,0,1-2.92,5.05C13.84,13.05,9.73,13.67,9.73,13.67Z"/>
    <g>
      <path class="cls-3" d="M28.27,36.46l1.3-.1q.41,5.36.83,10.69,5.94-5.84,12-11.62l1.62-.1Q37.45,41.6,31,48q9.32,8.1,18.39,16.34l-1.74.11q-8.43-7.61-17.07-15.09c.43,5.4.85,10.81,1.29,16.21l-1.31.1Q29.43,51,28.27,36.46Z"/>
      <path class="cls-3" d="M80.58,48.06a14.68,14.68,0,0,1-4.06,10.76,14.61,14.61,0,0,1-10.45,5l-.6,0A14.43,14.43,0,0,1,57,61.72l-1.46,2.19L54.08,64l2-2.93a16,16,0,0,1-4.62-5,14.51,14.51,0,0,1,2-17.37,15.32,15.32,0,0,1,10.85-5.06,15.58,15.58,0,0,1,9.05,2.27l1.53-2.17,1.57-.07-2.1,2.94a15.25,15.25,0,0,1,4.5,5A14.06,14.06,0,0,1,80.58,48.06ZM64.3,34.77a13.89,13.89,0,0,0-9.93,4.66,13.2,13.2,0,0,0-3.61,10.12,13.36,13.36,0,0,0,1.79,6A14.55,14.55,0,0,0,56.7,60.1q7.8-11.67,15.91-23.22A14.42,14.42,0,0,0,64.3,34.77Zm15,13.34a13.27,13.27,0,0,0-1.62-5.92,14.3,14.3,0,0,0-4-4.62q-8.14,11.52-16,23.14a14.23,14.23,0,0,0,8.08,2,13.74,13.74,0,0,0,9.77-4.59A13.5,13.5,0,0,0,79.27,48.11Z"/>
      <path class="cls-3" d="M85.07,33.27l1.29-.05a6.36,6.36,0,0,1,4.45,1.44,5.13,5.13,0,0,1,1.89,4,5.66,5.66,0,0,1-.89,3.05,4.61,4.61,0,0,1-2.25,2.07A9.17,9.17,0,0,1,97,53a8.65,8.65,0,0,1-2.72,6.55,9.84,9.84,0,0,1-6.9,3l-1.27,0Q85.57,47.88,85.07,33.27Zm1.33,1c.1,3.07.21,6.14.31,9.2H87A4.32,4.32,0,0,0,90.17,42a4.62,4.62,0,0,0,1.29-3.32A4.27,4.27,0,0,0,90,35.53a4.47,4.47,0,0,0-3.27-1.23Zm.34,10.26.57,16.8.32,0a8,8,0,0,0,5.79-2.67,8.16,8.16,0,0,0,2.31-6,8.42,8.42,0,0,0-8.67-8.14Z"/>
      <path class="cls-3" d="M124.52,34.09a6.9,6.9,0,0,0-3.58-.92,5,5,0,0,0-3.36,1.21,4.06,4.06,0,0,0-1.36,3.27v.2c0,1.63,1,3.12,2.85,4.46.8.56,1.71,1.12,2.71,1.68s2,1.14,3,1.78a21.58,21.58,0,0,1,2.72,2,8.35,8.35,0,0,1,2,2.63,7.58,7.58,0,0,1,.78,3.43v.39a7.39,7.39,0,0,1-2.56,5.89,9.42,9.42,0,0,1-6.29,2.21,8.79,8.79,0,0,1-7.7-4l0-2.11a8.89,8.89,0,0,0,3.07,3.58,8.57,8.57,0,0,0,5,1.35,7.68,7.68,0,0,0,5.13-1.9,6.26,6.26,0,0,0,2.18-5,.89.89,0,0,1,0-.23,6.5,6.5,0,0,0-1-3.57,8.77,8.77,0,0,0-2.6-2.65c-1-.69-2.17-1.4-3.4-2.15l-3.41-2.08A8.77,8.77,0,0,1,116,41.2,5.45,5.45,0,0,1,114.9,38V37.7a5,5,0,0,1,1.77-4.19A7,7,0,0,1,121.14,32a7.15,7.15,0,0,1,5.9,2.63c0,.66,0,1.32,0,2A6.79,6.79,0,0,0,124.52,34.09Z"/>
      <path class="cls-3" d="M157.25,32.84l1.17,0q-.33,14.84-.69,29.67Q147.16,49,136.11,35.74L136,61.79h-1.15L135,32.11Q146,45.39,156.67,58.84,157,45.84,157.25,32.84Z"/>
      <path class="cls-3" d="M177.8,32.75q7,15.26,13.64,30.59l-1.38-.07q-2.52-5.72-5.1-11.41c-5.32-.23-10.65-.44-16-.6q-3,5.48-5.88,11l-1.23,0Q169.67,47.44,177.8,32.75Zm-.22,2.69q-4.07,7.34-8,14.7,7.48.24,15,.57Q181.11,43.08,177.58,35.44Z"/>
      <path class="cls-3" d="M197.12,34.34l1.34.07a10,10,0,0,1,7,3.19A8.74,8.74,0,0,1,208,44.34a8.53,8.53,0,0,1-3.42,6.32,9.77,9.77,0,0,1-6.8,2.35l-.31,0-.6,10.63-1.3-.07Q196.35,48.94,197.12,34.34Zm.38,17.56.32,0a8.21,8.21,0,0,0,6-2.09,7.8,7.8,0,0,0,.65-11.48,8.19,8.19,0,0,0-5.73-2.79l-.32,0Z"/>
      <path class="cls-3" d="M222.48,37.51a6.85,6.85,0,0,0-3.5-1.19,5,5,0,0,0-3.46,1,4.08,4.08,0,0,0-1.61,3.16c0,.06,0,.13,0,.19-.11,1.64.73,3.19,2.51,4.67A30.94,30.94,0,0,0,219,47.17c1,.63,1.92,1.3,2.87,2a21.78,21.78,0,0,1,2.56,2.23,8.26,8.26,0,0,1,1.79,2.78,7.46,7.46,0,0,1,.51,3.48l0,.39a7.39,7.39,0,0,1-3,5.67,9.41,9.41,0,0,1-6.46,1.72,8.8,8.8,0,0,1-7.39-4.53c.05-.7.09-1.4.14-2.1a8.94,8.94,0,0,0,2.78,3.8,8.58,8.58,0,0,0,4.86,1.72,7.69,7.69,0,0,0,5.28-1.49A6.31,6.31,0,0,0,225.45,58a1.64,1.64,0,0,1,0-.23,6.45,6.45,0,0,0-.76-3.64,8.78,8.78,0,0,0-2.39-2.84c-1-.76-2.06-1.56-3.23-2.4l-3.26-2.34A9,9,0,0,1,213.4,44a5.48,5.48,0,0,1-.83-3.3c0-.09,0-.18,0-.27a5,5,0,0,1,2.1-4,7,7,0,0,1,4.58-1.14,7.24,7.24,0,0,1,5.7,3.08l-.15,2A6.84,6.84,0,0,0,222.48,37.51Z"/>
    </g>
  </g>
</svg>
