<svg id="Layer_1" data-name="Layer 1" xmlns="http://www.w3.org/2000/svg" width="79.54mm" height="34.59mm" viewBox="0 0 225.48 98.05">
  <defs>
    <style>
      .cls-1 {
        fill: none;
        stroke: #000;
        stroke-width: 4px;
      }

      .cls-1, .cls-2 {
        stroke-miterlimit: 10;
      }

      .cls-2 {
        fill: #1a1a1a;
        stroke: #fff;
        stroke-width: 2px;
      }

      .cls-3 {
        fill: #dbbe94;
      }
    </style>
  </defs>
  <g>
    <rect class="cls-1" x="2" y="2" width="221.48" height="94.05" rx="12"/>
    <path class="cls-2" d="M8.87,13.67,9.09,84.6s3.72,0,5.89,2.48,1.46,4.63,1.46,4.63l190.77.63A5.61,5.61,0,0,1,210,87.12a13.74,13.74,0,0,1,5.61-1.42l.21-74.24a14.51,14.51,0,0,1-5.07-1.32c-1.95-1.11-2.5-4.05-2.5-4.05l-191.2.32a8,8,0,0,1-2.59,5.05C12.52,13.05,8.87,13.67,8.87,13.67Z"/>
    <g>
      <path class="cls-3" d="M35.63,36.62q1.08,14,2.21,28C40.9,64.42,44,64.19,47,64c0,.37.06.75.08,1.13-3.49.23-7,.49-10.48.76Q35.44,51.3,34.28,36.72Z"/>
      <path class="cls-3" d="M73.05,34.43c0,.38,0,.75,0,1.13q-4.81.19-9.61.43.39,7.89.79,15.77,3.94-.19,7.89-.35c0,.37,0,.75,0,1.13q-3.94.15-7.89.35l.51,10c3.12-.15,6.23-.29,9.35-.41,0,.37,0,.75,0,1.13q-5.33.21-10.64.48Q63.3,58.56,63,53q-4,.2-8.05.44-2.46,5.73-4.86,11.48L48.88,65q6.36-15.09,13.21-30.07C65.74,34.74,69.4,34.57,73.05,34.43ZM63,51.87q-.39-7.35-.76-14.69-3.45,7.55-6.78,15.1C57.94,52.13,60.45,52,63,51.87Z"/>
      <path class="cls-3" d="M86.93,35.53a7,7,0,0,0-3.63-.83A5.08,5.08,0,0,0,79.94,36a4,4,0,0,0-1.29,3.3v.2q.09,2.46,3,4.39a29,29,0,0,0,2.77,1.61c1,.53,2,1.1,3.07,1.71a22.08,22.08,0,0,1,2.78,2,8.52,8.52,0,0,1,2.06,2.59,7.53,7.53,0,0,1,.86,3.42v.39a7.36,7.36,0,0,1-2.43,5.94,9.51,9.51,0,0,1-6.25,2.35,8.88,8.88,0,0,1-7.83-3.76c0-.7,0-1.4-.08-2.11a9,9,0,0,0,3.17,3.5,8.59,8.59,0,0,0,5,1.23,7.72,7.72,0,0,0,5.1-2,6.29,6.29,0,0,0,2.07-5,1.69,1.69,0,0,0,0-.23,6.4,6.4,0,0,0-1.11-3.55,8.9,8.9,0,0,0-2.67-2.59q-1.59-1-3.48-2.07l-3.49-2a9,9,0,0,1-2.7-2.37,5.44,5.44,0,0,1-1.17-3.2c0-.09,0-.18,0-.27A5,5,0,0,1,79,35.15a7.13,7.13,0,0,1,4.48-1.59,7.31,7.31,0,0,1,6,2.49c0,.67,0,1.33.05,2A6.91,6.91,0,0,0,86.93,35.53Z"/>
      <path class="cls-3" d="M143,34.08q-.45,14.63-.89,29.24l-1.31,0,.81-27.72q-7.6,13.94-14.82,28-6.75-14.23-13.92-28.38,0,13.88,0,27.73h-1.19q0-14.61,0-29.25h2q6.85,13.5,13.34,27.09,6.9-13.39,14.17-26.69Z"/>
      <path class="cls-3" d="M149.15,34.28q5.47.21,11,.46l-.06,1.13q-4.8-.23-9.61-.41-.28,7.95-.6,15.9l7.89.33c0,.38,0,.75-.05,1.13-2.63-.12-5.25-.23-7.88-.33-.13,3.32-.25,6.63-.38,9.94,3.11.12,6.23.25,9.34.4,0,.37,0,.75-.05,1.13-3.55-.17-7.09-.32-10.64-.44Q148.62,48.9,149.15,34.28Z"/>
      <path class="cls-3" d="M164.19,34.94l1.75.09a9.83,9.83,0,0,1,6.79,3.17,8.63,8.63,0,0,1-.85,13.06,9.54,9.54,0,0,1-6.61,2.4H165q4.88,5.57,9.63,11.18l-1.7-.1q-4.2-4.92-8.48-9.78c-.17,3.09-.33,6.18-.5,9.27l-1.27-.07Q163.45,49.54,164.19,34.94Zm.38,17.55.72,0a8,8,0,0,0,5.87-2.09A7.76,7.76,0,0,0,174,44.86,7.65,7.65,0,0,0,171.77,39a8.39,8.39,0,0,0-5.8-2.79l-.53,0Z"/>
      <path class="cls-3" d="M180.78,35.92c3.66.25,7.31.52,11,.8l-.09,1.13c-3.2-.25-6.41-.49-9.61-.71L180.94,53l7.89.57-.09,1.13c-2.62-.2-5.25-.4-7.88-.58-.23,3.31-.47,6.62-.7,9.93,3.11.21,6.23.44,9.34.68l-.09,1.13q-5.31-.42-10.64-.78Q179.79,50.52,180.78,35.92Z"/>
    </g>
  </g>
</svg>
