<svg id="Layer_1" data-name="Layer 1" xmlns="http://www.w3.org/2000/svg" width="89.34mm" height="34.59mm" viewBox="0 0 253.24 98.05">
  <defs>
    <style>
      .cls-1 {
        fill: none;
        stroke: #000;
        stroke-width: 4px;
      }

      .cls-1, .cls-2 {
        stroke-miterlimit: 10;
      }

      .cls-2 {
        fill: #1a1a1a;
        stroke: #fff;
        stroke-width: 2px;
      }

      .cls-3 {
        fill: #dbbe94;
      }
    </style>
  </defs>
  <g>
    <rect class="cls-1" x="2" y="2" width="249.24" height="94.05" rx="12"/>
    <path class="cls-2" d="M9.73,13.67,10,84.6s4.19,0,6.62,2.48,1.65,4.63,1.65,4.63l214.68.63a5.43,5.43,0,0,1,3.18-5.22,17.14,17.14,0,0,1,6.32-1.42l.24-74.24A18.08,18.08,0,0,1,237,10.14c-2.19-1.11-2.81-4.05-2.81-4.05L19,6.41a7.64,7.64,0,0,1-2.92,5.05C13.84,13.05,9.73,13.67,9.73,13.67Z"/>
    <g>
      <path class="cls-3" d="M40.81,37.14a7,7,0,0,0-3.65-.68,5.05,5.05,0,0,0-3.28,1.43,4,4,0,0,0-1.14,3.36c0,.06,0,.13,0,.19q.2,2.45,3.15,4.26a29.59,29.59,0,0,0,2.83,1.5c1,.49,2.09,1,3.13,1.58a22.29,22.29,0,0,1,2.86,1.84,8.59,8.59,0,0,1,2.17,2.49,7.66,7.66,0,0,1,1,3.38l0,.39a7.33,7.33,0,0,1-2.17,6,9.32,9.32,0,0,1-6.14,2.61,8.83,8.83,0,0,1-8-3.43c-.06-.7-.12-1.4-.17-2.1a8.85,8.85,0,0,0,3.31,3.37,8.53,8.53,0,0,0,5.06,1,7.7,7.7,0,0,0,5-2.22A6.26,6.26,0,0,0,46.69,57c0-.08,0-.16,0-.24a6.45,6.45,0,0,0-1.27-3.49,8.82,8.82,0,0,0-2.77-2.47c-1.09-.62-2.27-1.26-3.55-1.93s-2.47-1.28-3.56-1.85a9.15,9.15,0,0,1-2.8-2.25,5.55,5.55,0,0,1-1.29-3.15c0-.09,0-.18,0-.27a5,5,0,0,1,1.5-4.3,7,7,0,0,1,4.38-1.77,7.23,7.23,0,0,1,6.08,2.23c0,.67.09,1.33.13,2A6.83,6.83,0,0,0,40.81,37.14Z"/>
      <path class="cls-3" d="M51.15,34.91c3.62-.22,7.25-.43,10.87-.61l.06,1.13c-3.18.16-6.35.34-9.53.53l1,15.88,7.85-.44.06,1.13c-2.61.14-5.23.28-7.84.44l.6,9.93q4.66-.28,9.33-.52l.06,1.13q-5.31.27-10.62.59Q52,49.51,51.15,34.91Z"/>
      <path class="cls-3" d="M84.48,58.53A14.77,14.77,0,0,1,79.56,48a14.12,14.12,0,0,1,4.22-10.73,15.95,15.95,0,0,1,22.2-.6,14.16,14.16,0,0,1,4.74,10.52A14.8,14.8,0,0,1,106.39,58a14.61,14.61,0,0,1-10.57,4.78h-.59A14.54,14.54,0,0,1,84.48,58.53Zm24.92-11.2a13.23,13.23,0,0,0-4.35-9.8,14.49,14.49,0,0,0-20.31.53,13.21,13.21,0,0,0-3.86,10,13.54,13.54,0,0,0,4.54,9.73,14.24,14.24,0,0,0,20-.52A13.52,13.52,0,0,0,109.4,47.33Z"/>
      <path class="cls-3" d="M115.33,32.65l1.33,0a10,10,0,0,1,7.17,2.75A8.74,8.74,0,0,1,126.77,42a8.51,8.51,0,0,1-3,6.52,9.78,9.78,0,0,1-6.62,2.76h-.32l.09,10.64-1.3,0Q115.47,47.28,115.33,32.65Zm1.49,17.49h.32A8.14,8.14,0,0,0,123,47.69a7.81,7.81,0,0,0-.08-11.51A8.19,8.19,0,0,0,117,33.76h-.33Z"/>
      <path class="cls-3" d="M140.8,34.22a6.87,6.87,0,0,0-3.57-1,5,5,0,0,0-3.38,1.17,4,4,0,0,0-1.4,3.25v.19q0,2.46,2.79,4.5a27.93,27.93,0,0,0,2.69,1.72c1,.56,2,1.17,3,1.82A21.4,21.4,0,0,1,143.6,48a8.25,8.25,0,0,1,2,2.66,7.56,7.56,0,0,1,.73,3.44v.39a7.37,7.37,0,0,1-2.64,5.85,9.37,9.37,0,0,1-6.32,2.12,8.81,8.81,0,0,1-7.65-4.05c0-.7,0-1.41,0-2.11a8.86,8.86,0,0,0,3,3.62,8.46,8.46,0,0,0,5,1.41,7.63,7.63,0,0,0,5.15-1.82,6.26,6.26,0,0,0,2.25-5v-.23a6.54,6.54,0,0,0-1-3.59A9,9,0,0,0,141.51,48c-1-.7-2.16-1.43-3.38-2.2s-2.35-1.47-3.38-2.13a8.88,8.88,0,0,1-2.6-2.47,5.47,5.47,0,0,1-1-3.24V37.7A5,5,0,0,1,133,33.53a6.93,6.93,0,0,1,4.49-1.41,7.19,7.19,0,0,1,5.87,2.71c0,.66,0,1.32,0,2A6.84,6.84,0,0,0,140.8,34.22Z"/>
      <path class="cls-3" d="M151.26,32.81l1.29,0-.21,10.73q6.45-5.25,13-10.41l1.62.05q-7.11,5.61-14.1,11.3,8.44,9,16.65,18l-1.74-.06q-7.62-8.39-15.46-16.67c-.1,5.42-.22,10.84-.32,16.26l-1.31,0Q151,47.43,151.26,32.81Z"/>
      <path class="cls-3" d="M174.38,33.45l1.73.07a9.69,9.69,0,0,1,6.77,3.07,8.67,8.67,0,0,1-.64,13.07,9.42,9.42,0,0,1-6.53,2.5h-.28q4.94,5.49,9.76,11l-1.69-.08q-4.26-4.83-8.6-9.65l-.36,9.28-1.26,0Q173.84,48.07,174.38,33.45ZM175,51l.71,0a8,8,0,0,0,5.81-2.18,7.77,7.77,0,0,0,2.74-5.62,7.69,7.69,0,0,0-2.32-5.88,8.3,8.3,0,0,0-5.79-2.7l-.52,0Z"/>
      <path class="cls-3" d="M191,34.18l1.33.07q-.75,14.61-1.52,29.21l-1.3-.07Q190.29,48.79,191,34.18Z"/>
      <path class="cls-3" d="M198.63,34.59c3.6.2,7.19.42,10.79.65,0,.38,0,.75-.07,1.13-3.16-.21-6.3-.4-9.45-.58q-.47,7.91-.92,15.81c2.59.15,5.18.3,7.77.47,0,.37-.05.75-.07,1.13-2.59-.17-5.18-.32-7.77-.47q-.32,5.57-.65,11.13L197,63.79Q197.81,49.18,198.63,34.59Z"/>
      <path class="cls-3" d="M226.48,36.46l-.09,1.13-6.91-.52q-1,14-2.08,28L216.09,65q1-14,2.06-28-3.5-.26-7-.48c0-.38.05-.75.08-1.13Q218.86,35.87,226.48,36.46Z"/>
    </g>
  </g>
</svg>
