<svg id="Layer_1" data-name="Layer 1" xmlns="http://www.w3.org/2000/svg" width="162.52mm" height="46.42mm" viewBox="0 0 460.68 131.59">
  <defs>
    <style>
      .cls-1 {
        fill: #dbbe94;
      }
    </style>
  </defs>
  <g>
    <g>
      <path d="M149.26,2.67l9.38,19.21h-.88l-3.55-7.16h-10l-3.5,7.16h-.78Zm-.07,1.73L144.51,14h9.4Z"/>
      <path d="M162.09,3.12v18h5.8v.73h-6.63V3.12Z"/>
      <path d="M170.26,3.12h.8V10L179,3.12h1l-8.58,7.48,10.78,11.28h-1.1l-10-10.43V21.88h-.83Z"/>
      <path d="M185.5,19.28a9.52,9.52,0,0,1-2.84-6.84,9.24,9.24,0,0,1,2.88-6.78,9.73,9.73,0,0,1,13.77,0,9.27,9.27,0,0,1,2.85,6.79,9.53,9.53,0,0,1-2.82,6.85,9.1,9.1,0,0,1-6.75,2.91h-.38A9.07,9.07,0,0,1,185.5,19.28Zm15.84-6.79a8.68,8.68,0,0,0-2.61-6.33,8.88,8.88,0,0,0-12.62,0,8.65,8.65,0,0,0-2.62,6.33,8.69,8.69,0,0,0,2.62,6.34,8.84,8.84,0,0,0,12.6,0A8.7,8.7,0,0,0,201.34,12.49Z"/>
      <path d="M218.84,3.12h.82V21.88h-.82V14.72H206v7.16h-.83V3.12H206V14h12.85Z"/>
      <path d="M225.5,19.28a9.52,9.52,0,0,1-2.84-6.84,9.24,9.24,0,0,1,2.88-6.78,9.73,9.73,0,0,1,13.77,0,9.27,9.27,0,0,1,2.85,6.79,9.53,9.53,0,0,1-2.82,6.85,9.1,9.1,0,0,1-6.75,2.91h-.38A9.07,9.07,0,0,1,225.5,19.28Zm15.84-6.79a8.68,8.68,0,0,0-2.61-6.33,8.88,8.88,0,0,0-12.62,0,8.65,8.65,0,0,0-2.62,6.33,8.69,8.69,0,0,0,2.62,6.34,8.84,8.84,0,0,0,12.6,0A8.7,8.7,0,0,0,241.34,12.49Z"/>
      <path d="M246,3.12v18h5.8v.73h-6.63V3.12Z"/>
      <path d="M260.15,4.12a4.18,4.18,0,0,0-2.21-.59,3,3,0,0,0-2.09.76A2.66,2.66,0,0,0,255,6.38V6.5a3.64,3.64,0,0,0,1.75,2.88,19.13,19.13,0,0,0,1.69,1.08c.62.36,1.25.74,1.87,1.15a13.57,13.57,0,0,1,1.7,1.3,5.36,5.36,0,0,1,1.25,1.69,4.9,4.9,0,0,1,.49,2.2v.25a4.78,4.78,0,0,1-1.61,3.78,5.9,5.9,0,0,1-4,1.39,5.49,5.49,0,0,1-4.85-2.57V18.3a5.59,5.59,0,0,0,1.91,2.31,5.34,5.34,0,0,0,3.14.89,4.79,4.79,0,0,0,3.25-1.2A4.06,4.06,0,0,0,263,17.1V17a4.18,4.18,0,0,0-.65-2.29,5.6,5.6,0,0,0-1.62-1.7q-1-.66-2.13-1.38l-2.12-1.36a5.67,5.67,0,0,1-1.63-1.57,3.6,3.6,0,0,1-.65-2.07V6.4a3.28,3.28,0,0,1,1.13-2.68,4.24,4.24,0,0,1,2.77-.92,4.42,4.42,0,0,1,3.65,1.7V5.78A4.37,4.37,0,0,0,260.15,4.12Z"/>
      <path d="M272.91,3.12v.73h-4.27v18h-.83v-18h-4.32V3.12Z"/>
      <path d="M280.44,21.88h-.83v-7.5l-5.7-11.26h.9l5.28,10.38,5.17-10.38H286l-5.57,11.26Z"/>
      <path d="M288.39,3.12h1.07a5.92,5.92,0,0,1,4.26,1.79,5.65,5.65,0,0,1,1.84,4.2,5.57,5.57,0,0,1-1.87,4.19,5.82,5.82,0,0,1-4,1.78h-.17l6.45,6.8h-1.08l-5.67-6v6h-.8Zm.8,11.23h.45a4.91,4.91,0,0,0,3.57-1.55,5.11,5.11,0,0,0,0-7.38,5.1,5.1,0,0,0-3.65-1.57h-.32Z"/>
      <path d="M298.56,3.12h.8V10l7.93-6.88h1l-8.58,7.48,10.78,11.28h-1.1l-10-10.43V21.88h-.83Z"/>
      <path d="M312.86,3.12h6.73v.73h-5.9v10.2h4.92v.73h-4.92v6.37h5.9v.73h-6.73Z"/>
    </g>
    <g>
      <path class="cls-1" d="M163.87,115v-7.29h-27l29.68-53.51V105h7v2.63h-7V115Zm0-9.92V63.36L140.75,105Z"/>
      <path class="cls-1" d="M209.47,116h-1.2a28.79,28.79,0,0,1-21.4-9.29,30.28,30.28,0,0,1-9-21.79,31,31,0,0,1,53-21.72,30.69,30.69,0,0,1,5,37.12,31.32,31.32,0,0,1-11.16,11.39A28.89,28.89,0,0,1,209.47,116Zm27.84-30.92A27.77,27.77,0,0,0,229,64.83a28.08,28.08,0,0,0-40.12,0,28.74,28.74,0,0,0,0,40.45,28.18,28.18,0,0,0,40.12,0A27.65,27.65,0,0,0,237.31,85.08Z"/>
      <path class="cls-1" d="M286.19,80.16h-.8a11.87,11.87,0,0,1-8.92-3.92,13,13,0,0,1-3.72-9.2,13.08,13.08,0,0,1,26.16,0,12.92,12.92,0,0,1-3.76,9.2A12,12,0,0,1,286.19,80.16ZM318.51,55h3.12l-44.72,60h-3Zm-25.24,4.67a9.83,9.83,0,0,0-7.4-3.23,10.22,10.22,0,0,0-7.52,3.23,10.4,10.4,0,0,0-3.2,7.53,10.93,10.93,0,0,0,10.72,10.67,10,10,0,0,0,7.4-3.16,10.34,10.34,0,0,0,3.08-7.47A10.66,10.66,0,0,0,293.27,59.63ZM312,115.83h-.8a11.89,11.89,0,0,1-8.88-3.91,12.86,12.86,0,0,1-3.76-9.21,12.49,12.49,0,0,1,3.84-9.12,13.23,13.23,0,0,1,18.64,0,12.49,12.49,0,0,1,3.84,9.12,12.82,12.82,0,0,1-3.8,9.21A12.22,12.22,0,0,1,312,115.83Zm10.32-13a10.4,10.4,0,0,0-3.16-7.51,10,10,0,0,0-7.4-3.24,10.13,10.13,0,0,0-7.44,3.24,10.39,10.39,0,0,0,0,15,10.2,10.2,0,0,0,7.44,3.19,10.09,10.09,0,0,0,7.4-3.19A10.32,10.32,0,0,0,322.35,102.83Z"/>
    </g>
  </g>
</svg>
