<svg id="Layer_1" data-name="Layer 1" xmlns="http://www.w3.org/2000/svg" width="179.13mm" height="58.03mm" viewBox="0 0 507.77 164.5">
  <defs>
    <style>
      .cls-1, .cls-2 {
        fill: none;
        stroke-miterlimit: 10;
        stroke-width: 11px;
      }

      .cls-1 {
        stroke: #1a1a1a;
      }

      .cls-2 {
        stroke: #dbbe94;
      }
    </style>
  </defs>
  <g>
    <polyline class="cls-1" points="48.48 90.77 281.16 91.58 319.33 90.77 351.66 90.77"/>
    <polyline class="cls-2" points="351.3 90.88 384.44 91.09 465.64 90.1 507.21 90.88"/>
    <g>
      <path d="M56.19,112.12H48.42v-.78h7.77Z"/>
      <path d="M60.52,121.79v-18h-3v-.73h3.77v18.7Z"/>
      <path d="M74.09,106.57a3.44,3.44,0,0,1-.55,1.89,3.71,3.71,0,0,1-1.5,1.38,5.85,5.85,0,0,1,3.34,2.23,6.17,6.17,0,0,1-.55,8.22,6.37,6.37,0,0,1-9,0A6,6,0,0,1,64,115.84a6,6,0,0,1,1.26-3.67,6.21,6.21,0,0,1,3.24-2.28,3.75,3.75,0,0,1-1.53-1.38,3.49,3.49,0,0,1-.6-1.94,3.6,3.6,0,0,1,1.13-2.68,3.78,3.78,0,0,1,2.74-1.1,3.84,3.84,0,0,1,2.75,1.1A3.56,3.56,0,0,1,74.09,106.57Zm-9.3,9.31a5.54,5.54,0,0,0,11.08,0,5.39,5.39,0,0,0-1.63-3.93,5.26,5.26,0,0,0-3.88-1.65A5.33,5.33,0,0,0,66.44,112,5.4,5.4,0,0,0,64.79,115.88Zm5.42-12.39a3.05,3.05,0,0,0,0,6.1,3,3,0,0,0,2.16-.91,2.95,2.95,0,0,0,0-4.28A3,3,0,0,0,70.21,103.49Z"/>
      <path d="M79.87,106.79h-.1a1.74,1.74,0,0,1-1.29-.56,1.87,1.87,0,0,1-.54-1.33,1.9,1.9,0,0,1,3.23-1.31,1.78,1.78,0,0,1,.55,1.31,1.84,1.84,0,0,1-.55,1.33A1.78,1.78,0,0,1,79.87,106.79Zm1.2-1.87a1.28,1.28,0,0,0-.36-.91,1.22,1.22,0,0,0-1.77,0,1.24,1.24,0,0,0,0,1.77,1.22,1.22,0,0,0,1.77,0A1.27,1.27,0,0,0,81.07,104.92Z"/>
      <path d="M93.22,122.07h-.28a9,9,0,0,1-4.8-1.36,9.87,9.87,0,0,1-3.51-3.58,9.71,9.71,0,0,1,8.46-14.46,9.85,9.85,0,0,1,5.08,1.4V105a8.83,8.83,0,0,0-5.08-1.6,9,9,0,0,0-8.92,9,8.69,8.69,0,0,0,2.62,6.34,8.54,8.54,0,0,0,6.3,2.65,8.83,8.83,0,0,0,5.08-1.6v.93A9.32,9.32,0,0,1,93.22,122.07Z"/>
    </g>
    <g>
      <path d="M476.66,109.14a6.5,6.5,0,0,0-1.65-4.4,5.54,5.54,0,0,0-4.38-1.87,5.91,5.91,0,0,0-4.54,2,6.76,6.76,0,0,0-1.81,4.76h-.77a7.37,7.37,0,0,1,2-5.3,6.86,6.86,0,0,1,5.12-2.12,6.33,6.33,0,0,1,4.93,2.07,7.11,7.11,0,0,1,1.88,4.93c0,2.75-1.47,5-4.43,6.9l-6.79,4.25h11.15v.82H463.66l8.72-5.52Q476.66,112.92,476.66,109.14Z"/>
      <path d="M482,121.14v-18h-3v-.73h3.78v18.7Z"/>
      <path d="M487.13,106.14H487a1.74,1.74,0,0,1-1.29-.56,1.86,1.86,0,0,1-.53-1.33,1.79,1.79,0,0,1,.55-1.31,1.83,1.83,0,0,1,1.33-.55,1.85,1.85,0,0,1,1.34.55,1.79,1.79,0,0,1,.55,1.31,1.84,1.84,0,0,1-.55,1.33A1.78,1.78,0,0,1,487.13,106.14Zm1.2-1.87a1.25,1.25,0,0,0-.36-.9,1.2,1.2,0,0,0-1.76,0,1.24,1.24,0,0,0-.38.89,1.22,1.22,0,0,0,.38.88,1.21,1.21,0,0,0,1.76,0A1.25,1.25,0,0,0,488.33,104.27Z"/>
      <path d="M500.48,121.42h-.28a9.12,9.12,0,0,1-4.8-1.35,10,10,0,0,1-3.51-3.59A9.71,9.71,0,0,1,500.35,102a9.85,9.85,0,0,1,5.08,1.4v.92a8.91,8.91,0,0,0-5.08-1.6,9,9,0,0,0-8.92,9,8.68,8.68,0,0,0,2.62,6.34,8.54,8.54,0,0,0,6.3,2.65,8.83,8.83,0,0,0,5.08-1.6V120A9.32,9.32,0,0,1,500.48,121.42Z"/>
    </g>
    <g>
      <path d="M232.68,36.29h12.38L235.41,55h-.93l9.28-18H232.68Z"/>
      <path d="M259.84,54.44v.7a4.24,4.24,0,0,1-3-1.19,4,4,0,0,1-1.25-3V39.21h.8v4.55h3.45v.7h-3.45v6.45a3.43,3.43,0,0,0,3.48,3.53Z"/>
      <path d="M262.56,41c-.48,0-.72-.22-.72-.67s.24-.68.72-.68.73.23.73.68S263,41,262.56,41Zm.4,2.75V55h-.8V43.76Z"/>
      <path d="M270.56,54.51v.7a4.19,4.19,0,0,1-3-1.19,4,4,0,0,1-1.25-3V36.24h.8V51a3.43,3.43,0,0,0,3.47,3.52Z"/>
      <path d="M293.71,43a6.44,6.44,0,0,0-1.65-4.4,5.55,5.55,0,0,0-4.38-1.88,5.94,5.94,0,0,0-4.53,2,6.77,6.77,0,0,0-1.81,4.77h-.78a7.3,7.3,0,0,1,2.05-5.3A6.81,6.81,0,0,1,287.72,36a6.33,6.33,0,0,1,4.94,2.08A7.08,7.08,0,0,1,294.53,43q0,4.13-4.42,6.9l-6.8,4.25h11.15V55H280.71l8.72-5.53Q293.7,46.76,293.71,43Z"/>
      <path d="M299.06,55V37h-2.95v-.72h3.77V55Z"/>
      <path d="M304.18,40h-.09a1.72,1.72,0,0,1-1.29-.57,1.83,1.83,0,0,1-.54-1.32,1.76,1.76,0,0,1,.55-1.31,1.81,1.81,0,0,1,1.34-.55,1.79,1.79,0,0,1,1.33.55A1.77,1.77,0,0,1,306,38.1a1.81,1.81,0,0,1-.56,1.32A1.74,1.74,0,0,1,304.18,40Zm1.2-1.88a1.25,1.25,0,0,0-.36-.9,1.16,1.16,0,0,0-.87-.37,1.23,1.23,0,0,0-.89.38,1.26,1.26,0,0,0-.38.89,1.24,1.24,0,0,0,.38.89,1.2,1.2,0,0,0,.89.39A1.17,1.17,0,0,0,305,39,1.25,1.25,0,0,0,305.38,38.11Z"/>
      <path d="M317.53,55.26h-.27a9.07,9.07,0,0,1-4.8-1.35A9.87,9.87,0,0,1,309,50.33a9.71,9.71,0,0,1,8.46-14.47,9.94,9.94,0,0,1,5.07,1.4v.93a8.78,8.78,0,0,0-5.07-1.6,9,9,0,0,0-8.93,9,8.7,8.7,0,0,0,2.63,6.34,8.58,8.58,0,0,0,6.3,2.65,8.85,8.85,0,0,0,5.07-1.6v.92A9.18,9.18,0,0,1,317.53,55.26Z"/>
    </g>
    <g>
      <path d="M166.54,4.12a4.16,4.16,0,0,0-2.21-.59,3,3,0,0,0-2.09.76,2.66,2.66,0,0,0-.86,2.09V6.5a3.64,3.64,0,0,0,1.75,2.88,19.13,19.13,0,0,0,1.69,1.08c.62.36,1.25.74,1.87,1.15a13.57,13.57,0,0,1,1.7,1.3,5.36,5.36,0,0,1,1.25,1.69,4.9,4.9,0,0,1,.49,2.2v.25a4.78,4.78,0,0,1-1.61,3.78,5.9,5.9,0,0,1-4,1.39,5.5,5.5,0,0,1-4.85-2.57V18.3a5.59,5.59,0,0,0,1.91,2.31,5.34,5.34,0,0,0,3.14.89A4.79,4.79,0,0,0,168,20.3a4,4,0,0,0,1.38-3.2V17a4.26,4.26,0,0,0-.65-2.29,5.76,5.76,0,0,0-1.63-1.7c-.65-.44-1.36-.9-2.12-1.38l-2.13-1.36a5.51,5.51,0,0,1-1.62-1.57,3.53,3.53,0,0,1-.65-2.07V6.4a3.27,3.27,0,0,1,1.12-2.68,4.27,4.27,0,0,1,2.78-.92,4.43,4.43,0,0,1,3.65,1.7V5.78A4.47,4.47,0,0,0,166.54,4.12Z"/>
      <path d="M173,3.12h6.72v.73h-5.9v10.2h4.93v.73h-4.93v6.37h5.9v.73H173Z"/>
      <path d="M190.18,22.3,180.85,3.12h.91l8.5,17.38L198.7,3.12h.81Z"/>
      <path d="M201.88,3.12h6.72v.73h-5.9v10.2h4.93v.73H202.7v6.37h5.9v.73h-6.72Z"/>
      <path d="M211.1,3.12h1.08a5.92,5.92,0,0,1,4.26,1.79,5.65,5.65,0,0,1,1.84,4.2,5.59,5.59,0,0,1-1.88,4.19,5.79,5.79,0,0,1-4,1.78h-.18l6.45,6.8h-1.07l-5.68-6v6h-.8Zm.8,11.23h.45a5,5,0,0,0,3.58-1.55,5.11,5.11,0,0,0-.05-7.38,5.12,5.12,0,0,0-3.65-1.57h-.33Z"/>
      <path d="M221.4,3.12h.83V21.88h-.83Z"/>
      <path d="M239.9,3.12h.73v19l-13.8-17V21.88h-.73v-19l13.8,17Z"/>
      <path d="M251.43,14.72V14h7v6.78a9.17,9.17,0,0,1-4.95,1.37h-.27a9.07,9.07,0,0,1-4.8-1.35,9.82,9.82,0,0,1-3.51-3.59,9.52,9.52,0,0,1,1.58-11.6,9.4,9.4,0,0,1,6.88-2.86,9.94,9.94,0,0,1,5.07,1.4v.93a8.81,8.81,0,0,0-5.07-1.61,8.57,8.57,0,0,0-6.3,2.64,8.66,8.66,0,0,0-2.63,6.33,8.7,8.7,0,0,0,2.63,6.34,8.57,8.57,0,0,0,6.3,2.64,9.86,9.86,0,0,0,4.25-1V14.72Z"/>
      <path d="M267.69,4.12a4.16,4.16,0,0,0-2.21-.59,3,3,0,0,0-2.09.76,2.66,2.66,0,0,0-.86,2.09V6.5a3.64,3.64,0,0,0,1.75,2.88A19.13,19.13,0,0,0,266,10.46c.62.36,1.25.74,1.87,1.15a13.57,13.57,0,0,1,1.7,1.3,5.36,5.36,0,0,1,1.25,1.69,4.9,4.9,0,0,1,.49,2.2v.25a4.78,4.78,0,0,1-1.61,3.78,5.9,5.9,0,0,1-4,1.39,5.49,5.49,0,0,1-4.85-2.57V18.3a5.59,5.59,0,0,0,1.91,2.31,5.34,5.34,0,0,0,3.14.89,4.79,4.79,0,0,0,3.25-1.2,4,4,0,0,0,1.37-3.2V17a4.18,4.18,0,0,0-.65-2.29,5.6,5.6,0,0,0-1.62-1.7q-1-.66-2.13-1.38L264,10.22a5.67,5.67,0,0,1-1.63-1.57,3.6,3.6,0,0,1-.65-2.07V6.4a3.28,3.28,0,0,1,1.13-2.68,4.24,4.24,0,0,1,2.77-.92,4.42,4.42,0,0,1,3.65,1.7V5.78A4.37,4.37,0,0,0,267.69,4.12Z"/>
      <path d="M280.45,3.12v.73h-4.27v18h-.83v-18H271V3.12Z"/>
      <path d="M282.83,3.12h6.72v.73h-5.9v10.2h4.93v.73h-4.93v6.37h5.9v.73h-6.72Z"/>
      <path d="M311.28,3.12V21.88h-.83V4.1L301.6,22.22,292.8,4.1V21.88h-.75V3.12h1.2l8.43,17.3,8.45-17.3Z"/>
      <path d="M315,3.12h.83a6.1,6.1,0,0,1,4.42,1.79,5.7,5.7,0,0,1,1.83,4.21,5.51,5.51,0,0,1-1.89,4.18A6,6,0,0,1,316,15.05h-.2v6.83H315Zm.83,11.23h.2a5,5,0,0,0,3.66-1.55,5.11,5.11,0,0,0,0-7.38A5,5,0,0,0,316,3.85h-.2Z"/>
      <path d="M324.78,3.12h6.72v.73h-5.9v10.2h4.93v.73H325.6v6.37h5.9v.73h-6.72Z"/>
      <path d="M334,3.12h1.08a6,6,0,0,1,4.26,1.79,5.69,5.69,0,0,1,1.84,4.2,5.59,5.59,0,0,1-1.88,4.19,5.79,5.79,0,0,1-4,1.78h-.18l6.45,6.8h-1.07l-5.68-6v6H334Zm.8,11.23h.45a5,5,0,0,0,3.58-1.55,5.11,5.11,0,0,0-.05-7.38,5.12,5.12,0,0,0-3.65-1.57h-.33Z"/>
      <path d="M352.4,2.67l9.38,19.21h-.88l-3.55-7.16h-10l-3.5,7.16h-.78Zm-.07,1.73L347.65,14h9.4Z"/>
      <path d="M370.45,3.12v.73h-4.27v18h-.83v-18H361V3.12Z"/>
      <path d="M378.55,22.22h-.25a5.27,5.27,0,0,1-3.89-1.6,5.48,5.48,0,0,1-1.58-4V3.12h.82V16.58A4.81,4.81,0,0,0,375,20.1a4.58,4.58,0,0,0,3.4,1.4,4.51,4.51,0,0,0,3.38-1.39,4.82,4.82,0,0,0,1.37-3.53V3.12H384V16.55a5.54,5.54,0,0,1-1.59,4.06A5.17,5.17,0,0,1,378.55,22.22Z"/>
      <path d="M387.75,3.12h1.08a6,6,0,0,1,4.26,1.79,5.69,5.69,0,0,1,1.84,4.2,5.59,5.59,0,0,1-1.88,4.19,5.79,5.79,0,0,1-4,1.78h-.18l6.45,6.8h-1.07l-5.68-6v6h-.8Zm.8,11.23H389a5,5,0,0,0,3.58-1.55,5.11,5.11,0,0,0-.05-7.38,5.12,5.12,0,0,0-3.65-1.57h-.33Z"/>
    </g>
  </g>
</svg>
